# AST/ASF file generated using VICON BodyLanguage
# -----------------------------------------------
:version 1.10
:name VICON
:units
  mass 1.0
  length 0.45
  angle deg
:documentation
   .ast/.asf automatically generated from VICON data using
   VICON BodyBuilder and BodyLanguage model FoxedUp or BRILLIANT.MOD
:root
   order TX TY TZ RX RY RZ
   axis XYZ
   position 0 0 0  
   orientation 0 0 0 
:bonedata
  begin
     id 1 
     name lhipjoint
     direction 0.570549 -0.739093 0.358072 
     length 2.41801 
     axis 0 0 0  XYZ
  end
  begin
     id 2 
     name lfemur
     direction 0.34202 -0.939693 0  
     length 7.44434  
     axis 0 0 20  XYZ
    dof rx ry rz
    limits (-160.0 20.0)
           (-70.0 70.0)
           (-60.0 70.0)
  end
  begin
     id 3 
     name ltibia
     direction 0.34202 -0.939693 0   
     length 7.60047   
     axis 0 0 20   XYZ
    dof rx
    limits (-10.0 170.0)
  end
  begin
     id 4 
     name lfoot
     direction 0.0909041 -0.249757 0.964032   
     length 2.03437   
     axis -90 7.62852e-016 20   XYZ
    dof rx rz
    limits (-45.0 90.0)
           (-70.0 20.0)
  end
  begin
     id 5 
     name ltoes
     direction 1.53547e-011 -4.2174e-011 1   
     length 1.02054   
     axis -90 7.62852e-016 20   XYZ
    dof rx
    limits (-90.0 20.0)
  end
  begin
     id 6 
     name rhipjoint
     direction -0.558096 -0.746754 0.361784   
     length 2.3932  
     axis 0 0 0  XYZ 
  end
  begin
     id 7 
     name rfemur
     direction -0.34202 -0.939693 0   
     length 7.3886   
     axis 0 0 -20   XYZ
    dof rx ry rz
    limits (-160.0 20.0)
           (-70.0 70.0)
           (-70.0 60.0)
  end
  begin
     id 8 
     name rtibia
     direction -0.34202 -0.939693 0   
     length 7.4839   
     axis 0 0 -20   XYZ
    dof rx
    limits (-10.0 170.0)
 end
 begin
     id 9 
     name rfoot
     direction -0.114619 -0.314914 0.942174   
     length 2.25127  
     axis -90 -7.62852e-016 -20   XYZ
    dof rx rz
    limits (-45.0 90.0)
           (-20.0 70.0)
  end
  begin
     id 10 
     name rtoes
     direction -1.53518e-011 -4.21881e-011 1   
     length 1.11821   
     axis -90 -7.62852e-016 -20   XYZ
    dof rx
    limits (-90.0 20.0)
  end
  begin
     id 11 
     name lowerback
     direction -0.00902269 0.996426 -0.0839821   
     length 2.25052   
     axis 0 0 0   XYZ
    dof rx ry rz
    limits (-20.0 45.0)
           (-30.0 30.0)
           (-30.0 30.0)
  end
  begin
     id 12 
     name upperback
     direction 0.0370973 0.999169 -0.0168941   
     length 2.24876   
     axis 0 0 0   XYZ
    dof rx ry rz
    limits (-20.0 45.0)
           (-30.0 30.0)
           (-30.0 30.0)
  end
  begin
     id 13 
     name thorax
     direction 0.0402726 0.998931 0.0227027   
     length 2.26408   
     axis 0 0 0   XYZ
    dof rx ry rz
    limits (-20.0 45.0)
           (-30.0 30.0)
           (-30.0 30.0)
  end
  begin
     id 14 
     name lowerneck
     direction -0.0733697 0.98508 0.155675   
     length 1.58204   
     axis 0 0 0   XYZ
    dof rx ry rz
    limits (-20.0 45.0)
           (-30.0 30.0)
           (-30.0 30.0)
  end
  begin
     id 15 
     name upperneck
     direction 0.0426554 0.993501 -0.105526   
     length 1.61222   
     axis 0 0 0   XYZ
    dof rx ry rz
    limits (-20.0 45.0)
           (-30.0 30.0)
           (-30.0 30.0)
  end
  begin
     id 16
     name head
     direction 0.020792 0.998384 -0.0528868  
     length 1.61527  
     axis 0 0 0   XYZ
    dof rx ry rz
    limits (-20.0 45.0)
           (-30.0 30.0)
           (-30.0 30.0)
  end
  begin
     id 17 
     name lclavicle
     direction 0.967109 0.155462 -0.201325  
     length 3.59357  
     axis 0 0 0   XYZ
    dof ry rz
    limits (-20.0 10.0)
           (0.0 20.0)
  end
  begin
     id 18 
     name lhumerus
     direction 1 -4.48968e-011 2.38195e-027   
     length 5.38154   
     axis 180 -30 -90   XYZ
    dof rx ry rz
    limits (-60.0 90.0)
           (-90.0 90.0)
           (-90.0 90.0)
  end
  begin
     id 19
     name lradius
     direction 1 -4.48961e-011 4.85371e-027   
     length 3.33312   
     axis 180 -30 -90   XYZ
    dof rx
    limits (-10.0 170.0)
  end
  begin
     id 20
     name lwrist
     direction 1 -4.48961e-011 4.76515e-027   
     length 1.66656   
     axis -3.27502e-015 90 90   XYZ
    dof ry
    limits (-180.0 0.0)
 end
  begin
     id 21 
     name lhand
     direction 1 -4.48951e-011 9.53074e-027   
     length 0.710789   
     axis -6.08098e-015 90 90   XYZ
    dof rx rz
    limits (-90.0 90.0)
           (-45.0 45.0)
  end
  begin
     id 22 
     name lfingers
     direction 1 -4.48953e-011 1.90613e-026   
     length 0.573057   
     axis -1.21619e-014 90 90   XYZ
    dof rx
    limits (0.0 90.0)
  end
  begin
     id 23
     name lthumb
     direction 0.707107 -6.34973e-011 0.707107   
     length 0.822798   
     axis -90 45 -9.86923e-015   XYZ
    dof rx rz
    limits (-45.0 45.0)
           (-45.0 45.0)
  end
  begin
     id 24 
     name rclavicle
     direction -0.9585 0.265289 -0.104398   
     length 3.42039  
     axis 0 0 0   XYZ 
    dof ry rz
    limits (-10.0 20.0)
           (-20.0 0.0)
  end
  begin
     id 25 
     name rhumerus
     direction -1 -4.48977e-011 2.21478e-027  
     length 5.16954   
     axis 180 30 90   XYZ
    dof rx ry rz
    limits (-90.0 60.0)
           (-90.0 90.0)
           (-90.0 90.0)
  end
  begin
     id 26 
     name rradius
     direction -1 -4.48967e-011 5.63677e-027   
     length 3.38287   
     axis 180 30 90   XYZ
    dof rx
    limits (-10.0 170.0)
  end
  begin
     id 27 
     name rwrist
     direction -1 -4.48967e-011 4.76501e-027   
     length 1.69144   
     axis -3.27502e-015 -90 -90   XYZ
    dof ry
    limits (-180.0 0.0)
  end
  begin
     id 28
     name rhand
     direction -1 -4.48902e-011 9.53292e-027   
     length 0.817967   
     axis -6.08098e-015 -90 -90   XYZ
    dof rx rz
    limits (-90.0 90.0)
           (-45.0 45.0)
  end
  begin
     id 29
     name rfingers
     direction -1 -4.49012e-011 1.90561e-026   
     length 0.659466   
     axis -1.21619e-014 -90 -90   XYZ
    dof rx
    limits (0.0 90.0)
  end
  begin
     id 30
     name rthumb
     direction -0.707107 -6.34944e-011 0.707107   
     length 0.946865   
     axis -90 -45 9.86923e-015   XYZ
    dof rx rz
    limits (-45.0 45.0)
           (-45.0 45.0)
  end
:hierarchy
  begin
    root lhipjoint rhipjoint lowerback
    lhipjoint lfemur
    lfemur ltibia
    ltibia lfoot
    lfoot ltoes
    rhipjoint rfemur
    rfemur rtibia
    rtibia rfoot
    rfoot rtoes
    lowerback upperback
    upperback thorax
    thorax lowerneck lclavicle rclavicle
    lowerneck upperneck
    upperneck head
    lclavicle lhumerus
    lhumerus lradius
    lradius lwrist
    lwrist lhand lthumb
    lhand lfingers
    rclavicle rhumerus
    rhumerus rradius
    rradius rwrist
    rwrist rhand rthumb
    rhand rfingers
  end

#!OML:ASF F:\twosubjects\two\wednesday\Session 1\Justin1.ASF
:FULLY-SPECIFIED
:DEGREES
115
root 12.8011 17.5657 2.64107 3.29489 -3.29515 -8.05049
lowerback 0.992312 4.52384 6.50034
upperback 1.80342 6.01289 1.86291
thorax 1.77465 3.0823 -1.63608
lowerneck -14.0293 -4.79816 -11.4272
upperneck 16.9602 -5.44089 7.19635
head 8.08129 -2.6423 3.66817
rclavicle 3.02401e-014 2.52457e-014
rhumerus -55.7156 36.9283 -97.1566
rradius 59.3023
rwrist -21.2947
rhand -13.0375 20.2401
rfingers 7.12502
rthumb 13.057 -9.33117
lclavicle 3.02401e-014 2.52457e-014
lhumerus -45.753 17.5766 69.797
lradius 26.7144
lwrist -14.3487
lhand 6.17442 36.6296
lfingers 7.12502
lthumb 31.4895 63.9366
rfemur 16.7393 2.01693 32.8626
rtibia 6.99722e-014
rfoot -11.1412 -1.95148
rtoes -1.14122
lfemur -36.6266 0.570524 -9.00357
ltibia 25.709
lfoot -15.9317 2.69141
ltoes -17.7181
116
root 12.81 17.5537 2.81006 3.33756 -3.82536 -7.42444
lowerback 1.05028 4.54482 5.66781
upperback 1.85881 6.045 1.69224
thorax 1.73143 3.0884 -1.36031
lowerneck -14.2609 -4.62271 -11.2967
upperneck 17.1614 -5.18919 7.09413
head 8.15748 -2.52181 3.64205
rclavicle -2.21893e-014 -2.57923e-014
rhumerus -55.6486 37.4709 -97.4187
rradius 59.2014
rwrist -21.4062
rhand -12.9543 20.2328
rfingers 7.12502
rthumb 13.1372 -9.33336
lclavicle -2.21893e-014 -2.57923e-014
lhumerus -45.8889 18.1844 69.3158
lradius 26.3355
lwrist -14.3514
lhand 6.0195 37.2307
lfingers 7.12502
lthumb 31.3419 64.5664
rfemur 17.3173 2.51973 32.1565
rtibia 1.27222e-014
rfoot -11.116 -2.14833
rtoes -4.12281
lfemur -36.5621 0.946465 -9.80582
ltibia 25.5751
lfoot -16.0898 2.52638
ltoes -19.1414
117
root 12.8218 17.5337 2.98565 3.51209 -4.28356 -7.48679
lowerback 1.10057 4.67269 5.66288
upperback 1.71999 6.2256 1.65209
thorax 1.57587 3.17305 -1.40706
lowerneck -14.1861 -4.53769 -11.1252
upperneck 17.155 -5.10396 7.01814
head 8.12634 -2.47891 3.59928
rclavicle -5.0044e-014 -3.27995e-015
rhumerus -55.8776 37.5055 -97.7302
rradius 59.1354
rwrist -21.3721
rhand -13.2131 20.4496
rfingers 7.12502
rthumb 12.8878 -9.13245
lclavicle -5.0044e-014 -3.27995e-015
lhumerus -46.2194 18.172 69.0023
lradius 26.2898
lwrist -14.4252
lhand 6.55005 38.1428
lfingers 7.12502
lthumb 31.8473 65.3792
rfemur 17.8107 3.00758 32.1498
rtibia 7.31528e-014
rfoot -11.0033 -2.24658
rtoes -5.75564
lfemur -36.4808 1.32615 -9.87698
ltibia 25.624
lfoot -15.9792 2.38311
ltoes -19.5152
118
root 12.843 17.5108 3.1649 3.60208 -3.80964 -7.87191
lowerback 1.09791 4.55585 6.25137
upperback 1.67378 6.07256 1.65082
thorax 1.5824 3.10347 -1.73276
lowerneck -14.0204 -4.60096 -11.1404
upperneck 16.7666 -5.21476 7.13615
head 7.98183 -2.52092 3.6264
rclavicle -4.97583e-014 6.16232e-015
rhumerus -55.7775 37.1143 -97.6673
rradius 59.1508
rwrist -21.0392
rhand -12.9382 20.5287
rfingers 7.12502
rthumb 13.1528 -9.03644
lclavicle -4.97583e-014 6.16232e-015
lhumerus -46.1085 18.3662 68.6095
lradius 25.7099
lwrist -14.8559
lhand 6.56041 37.6273
lfingers 7.12502
lthumb 31.8572 64.8618
rfemur 18.3084 2.58977 32.489
rtibia 5.725e-014
rfoot -11.0038 -2.23193
rtoes -7.44827
lfemur -36.4947 1.28872 -9.81054
ltibia 25.9007
lfoot -15.1242 2.00708
ltoes -21.2874
119
root 12.8472 17.5058 3.32964 3.93034 -4.40577 -8.06078
lowerback 0.973991 4.73419 6.25045
upperback 1.69381 6.29885 1.66472
thorax 1.68842 3.21898 -1.6998
lowerneck -14.1085 -4.60451 -11.2847
upperneck 16.5622 -5.20641 7.3256
head 7.93784 -2.50496 3.71233
rclavicle -2.55563e-014 -3.42904e-014
rhumerus -55.4201 37.022 -97.4265
rradius 59.1541
rwrist -20.8361
rhand -12.5723 20.2938
rfingers 7.12502
rthumb 13.5055 -9.24829
lclavicle -2.55563e-014 -3.42904e-014
lhumerus -45.7554 19.045 68.1458
lradius 24.7952
lwrist -15.4982
lhand 6.34884 36.7255
lfingers 7.12502
lthumb 31.6557 63.9999
rfemur 18.5656 3.252 32.5924
rtibia -6.99722e-014
rfoot -10.6911 -2.13299
rtoes -9.27505
lfemur -36.4845 2.09032 -9.85922
ltibia 26.3565
lfoot -14.075 2.00715
ltoes -21.8315
